<?xml version="1.0" encoding="utf-8"?>
<!-- Generator: Adobe Illustrator 19.0.0, SVG Export Plug-In . SVG Version: 6.00 Build 0)  -->
<svg version="1.2" baseProfile="tiny" id="图层_2"
	 xmlns="http://www.w3.org/2000/svg" xmlns:xlink="http://www.w3.org/1999/xlink" x="0px" y="0px" viewBox="0 0 290 170"
	 xml:space="preserve">
<g id="XMLID_25_">
	<path id="XMLID_41_" fill="#008350" stroke="#008350" stroke-width="2" stroke-miterlimit="10" d="M115.2,135.1
		c-0.7,0.6-2.1,2.1-4.5,4.4h15.4c2.7,0,4.8-0.1,6.5-0.2l-1.3,2.8c-1.7-0.1-3.8-0.2-6.2-0.2h-1.7c-2.6,3-5.5,5.7-8.7,8.1
		c3.4,1.5,6.7,3.3,10,5.6c-1.2,0.8-2.4,1.8-3.7,3c-2.9-2.6-6.1-4.7-9.8-6.4c-3.7,2-7.5,3.5-11.6,4.6c-4,1.1-7.3,1.8-9.8,2.3
		c0.1-1.2,0-2.3-0.5-3.3c3.5-0.2,7-0.8,10.5-1.7c3.5-0.9,6.3-2,8.5-3.1c-2.8-1.1-6.2-2.2-10.1-3.1c2.8-2.3,5.1-4.3,6.7-5.9h-4.1
		c-1.3,0-3.2,0.1-5.7,0.2l1.3-2.8c1.3,0.1,3.1,0.2,5.4,0.2h5.5c2.6-2.5,4.9-5,6.8-7.5c1,0.7,2,1.2,3.1,1.6
		C116.5,134,115.9,134.5,115.2,135.1z M121.3,122.2c0.5,1.5,1,3.1,1.4,4.8c-0.8,0.3-1.7,0.8-2.8,1.4h15.2c-0.8,1.5-1.4,2.7-1.8,3.6
		c-0.4,0.9-1,2.2-1.6,3.7h-3.5l2.2-4.8H106l-2.1,4.5h-3.5c0.8-1.5,1.4-2.7,1.9-3.7c0.5-1,0.9-2.1,1.2-3.3h15.2
		c-0.1-1.8-0.4-3.2-1-4.4C119.1,123.5,120.2,122.8,121.3,122.2z M112.2,149c2.2-1.4,4.7-3.7,7.7-7h-11.3c-1.5,1.2-3.1,2.7-4.8,4.4
		C107.8,147.5,110.6,148.4,112.2,149z"/>
	<path id="XMLID_36_" fill="#008350" stroke="#008350" stroke-width="2" stroke-miterlimit="10" d="M161.8,125.6
		c1.5,0,3.2-0.1,5-0.2l-1.2,2.7c-1.8-0.1-3.2-0.2-4.1-0.2H159c-1.6,2.5-3.6,5.3-6,8.3h8c-0.9,1.8-1.7,3.3-2.3,4.7l-3.5,7.5
		c-0.6,1.4-1.5,3.3-2.6,5.9h-3l1.3-2.8h-5l-2.1,4.5h-3.1c1.3-2.6,2.3-4.7,3.1-6.2l3.4-7.3c-1.4,1.4-3,2.9-4.7,4.5
		c-0.3-0.8-0.7-1.6-1.3-2.2c3.1-2.5,6.1-5.4,8.8-8.7c2.7-3.3,4.7-6,6-8.2c-2,0-4,0.1-6,0.2l1.2-2.7c1.9,0.1,3.6,0.2,5.1,0.2H161.8z
		 M152.1,149l4.8-10.3h-5l-4.8,10.3H152.1z M167.4,147c1.3,0,3.4-0.1,6.4-0.2l-1.3,2.8c-2.9-0.1-5.4-0.2-7.4-0.2h-4.3
		c-1.2,0-2.7,0.1-4.5,0.2l1.3-2.8c1.2,0.1,2.6,0.2,4.4,0.2H167.4z M173.3,140.2l7.7-12.9h-7.6c-1.9,0-3.8,0.1-5.9,0.2l1.3-2.8
		c1.9,0.2,3.8,0.3,5.7,0.3h11.1c-1.9,2.8-4.9,7.9-9.2,15.3h5.3c-0.8,1.1-1.8,3.1-3.3,5.8c-1.4,2.7-2.9,5.2-4.4,7.5
		c-1.5,2.3-2.9,3.8-4.3,4.4c-1.4,0.7-3.6,1.1-6.8,1.3c0.4-1.1,0.5-2.3,0.3-3.4c2.8,0.1,4.7,0,5.6-0.3c0.9-0.3,2.2-1.8,3.8-4.6
		c1.6-2.8,3.1-5.5,4.5-8.2h-15.4c1.4-2.3,2.7-4.5,4.1-6.8c1.3-2.2,2.5-4.4,3.6-6.5l3.4,0.6c-0.9,1-1.9,2.5-3.1,4.3
		c-1.1,1.8-2.3,3.8-3.5,5.8H173.3z"/>
	<path id="XMLID_30_" fill="#008350" stroke="#008350" stroke-width="2" stroke-miterlimit="10" d="M211.6,137.5
		c-0.7-0.1-2.2-0.2-4.4-0.2h-1.7l-7.7,16.7c-0.6,1.4-1.4,3.1-2.3,5.3H192c1.1-2.2,2-4,2.6-5.3l4.8-10.3c-1.5,1.7-3,3.2-4.4,4.5
		c-1.4,1.4-3.3,3-5.6,5c-0.4-0.8-0.8-1.7-1.3-2.5c3-2.2,5.6-4.3,7.7-6.4c2.1-2.1,4.2-4.4,6.3-7h-1.2c-2,0-3.9,0.1-5.9,0.2l1.4-3
		c1.8,0.1,3.7,0.2,5.7,0.2h1.5l2.9-6.2c-1.4,0.2-3.4,0.6-6,1.1c0-0.9-0.2-1.8-0.4-2.7c1-0.1,2.9-0.4,5.5-0.9
		c2.6-0.5,4.7-0.9,6.2-1.2c1.5-0.3,2.8-0.7,4.1-1.2c0.1,1,0.3,2,0.6,3c-1,0.1-2.1,0.3-3.3,0.5c-1.2,0.3-2.2,0.4-3.2,0.5l-3.3,7h1.8
		c2.1,0,3.6-0.1,4.4-0.2L211.6,137.5z M208.7,141.2c0.5,0.8,1,1.8,1.5,2.8c-1,0.5-2.2,1.2-3.7,2.2c-0.3-1.7-1-3.4-2.1-5.1
		c1-0.4,2-1.1,3.1-2C207.8,139.7,208.2,140.4,208.7,141.2z M228.4,127.7c1-2.1,1.6-3.5,1.9-4.4h3.6c-0.4,0.7-1.1,2-1.9,3.7
		l-8.1,17.5c3.1-0.5,5.1-0.9,6-1.1l-0.8,2.8c-1.8,0.2-3.9,0.6-6.5,1.1l-2.7,5.9c-1,2.1-1.8,4.1-2.7,6.1h-3.6c1-2,2-4,3-6.1l2.5-5.3
		c-2.7,0.4-5.2,0.8-7.3,1.2c-2.1,0.4-4.3,0.9-6.7,1.5l0.3-3.1c3.6-0.5,8.6-1.3,15-2.3L228.4,127.7z M217.6,138.4
		c0.6,0.8,1.3,2,2.1,3.6c-1.3,0.7-2.6,1.5-3.7,2.2c-0.9-2.4-2-4.5-3.3-6.4c1-0.6,1.9-1.3,2.9-2C216.4,136.7,217,137.6,217.6,138.4z
		 M222.8,128.6c0.5,1,1.1,2.5,1.9,4.5c-1.4,0.6-2.6,1.2-3.7,1.9c-0.5-2-1-3.4-1.5-4.4c-0.5-0.9-0.8-1.7-1.1-2.3
		c1.1-0.5,2.2-1.1,3.2-1.9C222,126.8,222.3,127.6,222.8,128.6z"/>
	<path id="XMLID_26_" fill="#008350" stroke="#008350" stroke-width="2" stroke-miterlimit="10" d="M256.3,140.8
		c-1.9,0.7-3.8,1.5-5.8,2.2l-5.4,11.7c-0.5,1.2-1.3,2.2-2.5,2.8c-1.2,0.6-3.2,1.1-6,1.6c0.3-1,0.3-2.2,0.3-3.4
		c2.2,0.1,3.6-0.1,4.3-0.5c0.7-0.5,1.2-1,1.5-1.6l4.2-9c-2.1,0.7-4.2,1.6-6.3,2.5c0.2-1.1,0.1-2.1-0.3-3c1.2-0.2,3.8-1,7.9-2.5
		l3.5-7.6c-2.3,0-4.3,0.1-5.9,0.2l1.3-2.8c1.5,0.1,3.4,0.2,5.7,0.2c1.7-3.7,3-6.5,3.7-8.3h3.3c-0.8,1.6-2.2,4.3-4,8.3
		c1.2,0,2.7-0.1,4.5-0.2l-1.3,2.8c-1.7-0.1-3.2-0.2-4.4-0.2l-3,6.4c1.8-0.6,3.6-1.3,5.3-2.2C256.9,138.7,256.6,139.6,256.3,140.8z
		 M259.5,137.8c2.3,0.1,5,0.2,8,0.2l2.9-6.2h-3.8c-2,0-3.7,0.1-5,0.2l1.3-2.8c1.6,0.1,3.1,0.2,4.6,0.2h4.1c0.7-1.6,1.6-3.5,2.5-5.8
		h3.5c-1,1.9-1.9,3.8-2.8,5.8h5.8c1.2,0,2.6-0.1,4.2-0.2l-1.3,2.8c-1.5-0.1-2.9-0.2-4.1-0.2h-5.8l-2.9,6.2h8.4
		c-1.5,2.1-3.5,4.4-5.8,6.9c-2.4,2.5-5.1,4.8-8.1,7c1.2,1.2,2.5,2.2,4.1,3c1.5,0.7,3,1.2,4.4,1.6c-1.2,0.9-2.3,1.9-3.4,3
		c-3.2-1-5.9-2.9-8.3-5.6c-3.1,1.8-7.8,3.6-14.1,5.5c-0.2-0.6-0.5-1.6-1.1-3c1.8-0.2,3.8-0.7,6.1-1.4s4.9-1.7,7.7-3
		c-1-3.4-1-7.2-0.2-11.4h-2.2L259.5,137.8z M263.9,149.8c1.4-0.8,3-2.1,4.9-3.9c1.9-1.8,3.6-3.6,5.2-5.6h-10.4
		C262.8,144.8,263,147.9,263.9,149.8z"/>
</g>
<g id="XMLID_5_">
	<path id="XMLID_23_" fill="#FFFFFF" stroke="#FFFFFF" stroke-width="3" stroke-miterlimit="10" d="M24.4,88.5
		c-2.8-1.3-4.7-2.5-5.7-3.5c-1-1-1.6-2.6-1.6-4.7c0-1.7,0.6-3.3,1.9-4.8c1.3-1.5,3.1-2.3,5.5-2.3c1,0,2,0.2,3,0.5
		c0.9,0.4,1.6,0.7,2,0.7c0.3,0,0.6-0.1,0.9-0.3c0.3-0.2,0.5-0.5,0.7-0.9l0.6,6.9l-0.8,0.3C30,78.1,29,76.5,28,75.6
		c-1-0.8-2.3-1.3-3.8-1.3c-2,0-3.3,0.6-4,1.8c-0.7,1.2-1.1,2.4-1.1,3.8c0,1.2,0.3,2.2,1,2.9c0.7,0.7,2.5,1.8,5.5,3.3
		c2.5,1.1,4.3,2.3,5.4,3.7c1.1,1.4,1.6,3.1,1.6,5c0,2-0.6,3.8-1.9,5.4c-1.3,1.6-3.2,2.4-5.7,2.4c-1,0-2-0.2-2.8-0.7
		c-0.9-0.3-1.7-0.5-2.2-0.5c-0.3,0-0.6,0.1-0.9,0.3c-0.3,0.2-0.7,0.5-1.1,0.8l-1.2-8.2l0.9-0.3c0.7,2.8,1.7,4.7,3,5.8
		c1.3,1.1,2.8,1.6,4.4,1.6c1.8,0,3.1-0.6,4-1.7c0.9-1.1,1.3-2.7,1.3-4.9c0-1.1-0.5-2.2-1.5-3.3C28,90.5,26.5,89.5,24.4,88.5z"/>
	<path id="XMLID_20_" fill="#FFFFFF" stroke="#FFFFFF" stroke-width="3" stroke-miterlimit="10" d="M51.5,91.5h-7l-1.4,6.4
		c-0.1,0.6-0.2,1-0.2,1.3c0,0.4,0.1,0.9,0.2,1.3c0.2,0.4,0.6,0.7,1.3,0.7H45v1h-5.7v-1h0.5c0.4,0,0.8-0.1,1.1-0.4
		c0.3-0.3,0.5-0.8,0.6-1.4l6.1-25.7l2.3-0.8l5.9,26.5c0.2,0.7,0.5,1.1,0.8,1.4c0.3,0.3,0.7,0.4,1.1,0.4H58v1h-6.7v-1H52
		c0.6,0,1-0.1,1.1-0.4c0.1-0.3,0.2-0.5,0.2-0.8c0-0.4-0.1-0.8-0.2-1.2L51.5,91.5z M48.2,76.5h-0.2l-3.3,13.9h6.5L48.2,76.5z"/>
	<path id="XMLID_18_" fill="#FFFFFF" stroke="#FFFFFF" stroke-width="3" stroke-miterlimit="10" d="M87.9,74.5v-1h15.2l1.7,5.7
		l-0.8,0.3c-0.8-1.7-1.7-2.9-2.6-3.8s-2-1.3-3.1-1.3h-4.3c-0.4,0-0.8,0.1-1,0.3c-0.3,0.2-0.4,0.6-0.4,1v10.4H97c1,0,1.8-0.3,2.3-0.8
		c0.5-0.6,0.7-1.4,0.7-2.5v-1h0.9v9.9H100v-0.7c0-1.2-0.2-2.2-0.7-2.9s-1.2-1-2.3-1h-4.5v12.6c0,0.4,0.1,0.8,0.4,1
		c0.3,0.2,0.6,0.3,1,0.3h4c1.6,0,2.9-0.5,4-1.4c1.1-1,1.9-2.4,2.6-4.5l0.8,0.3l-1.7,6.6H87.7v-1h0.9c0.5,0,0.9-0.1,1.1-0.3
		c0.2-0.2,0.3-0.6,0.3-1v-24c0-0.4-0.1-0.8-0.3-1c-0.2-0.2-0.6-0.3-1.1-0.3H87.9z"/>
	<path id="XMLID_16_" fill="#FFFFFF" stroke="#FFFFFF" stroke-width="3" stroke-miterlimit="10" d="M111.7,88v-1.5h17.2V88H111.7z"
		/>
	<path id="XMLID_14_" fill="#FFFFFF" stroke="#FFFFFF" stroke-width="3" stroke-miterlimit="10" d="M145,102.6
		c-2.9,0-5.2-1.2-6.9-3.5s-2.6-6-2.6-11.1c0-4.3,0.9-7.8,2.7-10.6c1.8-2.8,4.3-4.2,7.4-4.2c0.7,0,1.4,0.1,2.2,0.3
		c0.7,0.3,1.3,0.5,1.9,0.5c0.4,0,0.7-0.1,1-0.2c0.3-0.1,0.5-0.3,0.7-0.7l1.4,7.4l-0.9,0.3c-0.6-2.1-1.5-3.8-2.5-4.9
		c-1-1.1-2.4-1.7-4-1.7c-2.2,0-3.9,1.3-5,3.9c-1.2,2.6-1.8,5.8-1.8,9.6c0,4.1,0.5,7.4,1.6,9.7c1,2.4,2.7,3.5,5.1,3.5
		c1.7,0,3.1-0.6,4.3-1.9c1.2-1.3,2-3,2.4-5.1l0.9,0.5c-0.5,2.4-1.5,4.3-2.9,5.8S146.9,102.6,145,102.6z"/>
	<path id="XMLID_11_" fill="#FFFFFF" stroke="#FFFFFF" stroke-width="3" stroke-miterlimit="10" d="M177,87.8
		c0,4.6-0.8,8.2-2.5,10.8c-1.7,2.6-3.7,3.9-6.2,3.9c-2.4,0-4.4-1.3-6.1-4s-2.6-6.3-2.6-10.8c0-4.4,0.8-7.9,2.4-10.6
		c1.6-2.7,3.7-4,6.3-4c2.7,0,4.8,1.4,6.4,4.3S177,83.8,177,87.8z M162.5,87.8c0,4.8,0.5,8.3,1.6,10.5s2.5,3.3,4.1,3.3
		c1.8,0,3.2-1,4.2-3.1c1-2.1,1.6-5.6,1.6-10.7c0-4-0.4-7.3-1.3-9.7c-0.9-2.5-2.4-3.7-4.4-3.7c-1.8,0-3.2,1.1-4.2,3.4
		C163,80,162.5,83.3,162.5,87.8z"/>
	<path id="XMLID_8_" fill="#FFFFFF" stroke="#FFFFFF" stroke-width="3" stroke-miterlimit="10" d="M185.3,75.9c0-0.4-0.1-0.8-0.3-1
		c-0.2-0.2-0.6-0.3-1.1-0.3h-0.9v-1h7c3.2,0,5.8,1.1,7.7,3.4c1.9,2.2,2.9,5.7,2.9,10.4c0,5.2-0.9,8.9-2.8,11.3
		c-1.9,2.4-4.6,3.6-8.2,3.6h-6.7v-1h1.1c0.5,0,0.9-0.1,1.1-0.3c0.2-0.2,0.3-0.6,0.3-1V75.9z M197.5,87.6c0-4.8-0.7-8.2-2-10.2
		c-1.3-2-3.2-2.9-5.6-2.9c-0.7,0-1.3,0.1-1.6,0.3c-0.4,0.2-0.5,0.6-0.5,1v24c0,0.4,0.2,0.8,0.5,1c0.3,0.2,0.7,0.3,1.2,0.3
		c2.3,0,4.2-0.9,5.7-2.8C196.8,96.6,197.5,93,197.5,87.6z"/>
	<path id="XMLID_6_" fill="#FFFFFF" stroke="#FFFFFF" stroke-width="3" stroke-miterlimit="10" d="M207.1,74.5v-1h15.2l1.7,5.7
		l-0.8,0.3c-0.8-1.7-1.7-2.9-2.6-3.8s-2-1.3-3.1-1.3h-4.3c-0.4,0-0.8,0.1-1,0.3c-0.3,0.2-0.4,0.6-0.4,1v10.4h4.5
		c1,0,1.8-0.3,2.3-0.8c0.5-0.6,0.7-1.4,0.7-2.5v-1h0.9v9.9h-0.9v-0.7c0-1.2-0.2-2.2-0.7-2.9s-1.2-1-2.3-1h-4.5v12.6
		c0,0.4,0.1,0.8,0.4,1c0.3,0.2,0.6,0.3,1,0.3h4c1.6,0,2.9-0.5,4-1.4c1.1-1,1.9-2.4,2.6-4.5l0.8,0.3l-1.7,6.6H207v-1h0.9
		c0.5,0,0.9-0.1,1.1-0.3c0.2-0.2,0.3-0.6,0.3-1v-24c0-0.4-0.1-0.8-0.3-1c-0.2-0.2-0.6-0.3-1.1-0.3H207.1z"/>
</g>
<line id="XMLID_4_" fill="#FFFFFF" stroke="#FFFFFF" stroke-width="4" stroke-miterlimit="10" x1="15.1" y1="112.5" x2="226.2" y2="112.5"/>
<linearGradient id="XMLID_111_" gradientUnits="userSpaceOnUse" x1="20.7341" y1="85" x2="234.5764" y2="85">
	<stop  offset="0" style="stop-color:#ABD395"/>
	<stop  offset="5.201072e-002" style="stop-color:#92C78B"/>
	<stop  offset="0.1465" style="stop-color:#6BB57B"/>
	<stop  offset="0.2479" style="stop-color:#4AA66E"/>
	<stop  offset="0.356" style="stop-color:#2F9963"/>
	<stop  offset="0.4731" style="stop-color:#1A8F5B"/>
	<stop  offset="0.6036" style="stop-color:#0B8855"/>
	<stop  offset="0.7586" style="stop-color:#038451"/>
	<stop  offset="1" style="stop-color:#008350"/>
</linearGradient>
<path id="XMLID_3_" fill="url(#XMLID_111_)" d="M234.4,58.6c0.6-1.1-0.3-2.8-1-3.9C204.7,9.5,152.5,9.2,152.5,9.2
	c-6.6,0-47,0.4-71.7,31c-4,5-16.6,21.9-17.9,42.6c-0.8,12.4,0.5,20.8,0.5,20.8c1.2,8.1,3.2,12.6,2.9,21.3c-0.2,6.4-0.3,10-2.9,13.1
	c-3.9,4.5-10.5,4.5-21.8,4.4c-4.6-0.1-10.8-0.4-18.1-1.7c-1.7-0.3-3.1,1.4-2.5,3c1.3,3.5,3.7,7.8,8.1,11.3
	c6.9,5.5,14.7,5.7,21.3,5.8c5.9,0.1,11.1,0.2,16.5-2.9c8.4-4.9,11-14,11.6-16.8c0-0.1,0-0.2,0.1-0.4c0.2-3.7,0.4-9.2,0-15.8
	c-0.5-7.9-1.5-12.5-1.9-16.5c-1.6-13.4,1.8-25.2,3.4-29.6c8.7-23.4,41.1-31.1,48.9-32.9c22.2-5.3,41.6-1.3,57.2,1.9
	C210.8,53.1,232,62.9,234.4,58.6z"/>
<g id="XMLID_2_">
</g>
<g id="XMLID_96_">
</g>
<g id="XMLID_97_">
</g>
<g id="XMLID_98_">
</g>
<g id="XMLID_99_">
</g>
<g id="XMLID_100_">
</g>
<g id="XMLID_101_">
</g>
<g id="XMLID_102_">
</g>
<g id="XMLID_103_">
</g>
<g id="XMLID_104_">
</g>
<g id="XMLID_105_">
</g>
<g id="XMLID_106_">
</g>
<g id="XMLID_107_">
</g>
<g id="XMLID_108_">
</g>
<g id="XMLID_109_">
</g>
</svg>
